{"title":"Charli XCX ft. Rita Ora - Doing It (2015.Pop)","uid":11727918,"size":129945653,"categoryP":"video","categoryS":"music_videos","magnet":"?xt=urn:btih:ecdf97dd0ecac7b151e08dc0b70304e000e19e43&amp;dn=Charli+XCX+ft.+Rita+Ora+-+Doing+It+%282015.Pop%29&amp;tr=udp%3A%2F%2Ftracker.openbittorrent.com%3A80&amp;tr=udp%3A%2F%2Fopen.demonii.com%3A1337&amp;tr=udp%3A%2F%2Ftracker.coppersurfer.tk%3A6969&amp;tr=udp%3A%2F%2Fexodus.desync.com%3A6969","seeders":4,"leechers":0,"uploader":"MeRaDil","files":1,"time":1425151116,"description":"CHARLI XCX ft.RITA ORA - DOING IT\n\n &lt;a href=&quot;\nhttp://gifyu.com/images/charli-rita.png&quot; rel=&quot;nofollow&quot; target=&quot;_NEW&quot;&gt;\nhttp://gifyu.com/images/charli-rita.png&lt;/a&gt;\n &lt;a href=&quot;\nhttp://gifyu.com/images/CharliXCX.png&quot; rel=&quot;nofollow&quot; target=&quot;_NEW&quot;&gt;\nhttp://gifyu.com/images/CharliXCX.png&lt;/a&gt;\n\nGeneral\nCharli XCX ft. Rita Ora - Doing It\nFormat                      : MPEG-4\nFormat profile              : Base Media\nCodec ID                    : isom\nFile size                   : 124 MiB\nDuration                    : 4mn 7s\nOverall bit rate            : 4 208 Kbps\nMusicVid name               : Doing It\nAlbum                       : SUCKER\nPerformer                   : Charli XCX ft. Rita Ora\nGenre                       : Pop\nContentType                 : Music Video\nRecorded date               : 2015\nCopyright                   : Charli XCX &amp; Rita Ora\nCover                       : Yes\nRating                      : ****\nMake                        : MeRaDil\noday                        : UK . 20-01-2015\nArtist url                  : http://www.charlixcxmusic.com\nRelease                     : UK . january 20 . 2015\n\nVideo\nID                          : 1\nFormat                      : AVC\nFormat/Info                 : Advanced Video Codec\nFormat profile              : &lt;a class=&quot;__cf_email__&quot; href=&quot;/cdn-cgi/l/email-protection&quot; data-cfemail=&quot;0149686669414d352f31&quot;&gt;[email&amp;#160;protected]&lt;/a&gt;&lt;script cf-hash='f9e31' type=&quot;text/javascript&quot;&gt;\n/* &lt;![CDATA[ */!function(){try{var t=&quot;currentScript&quot;in document?document.currentScript:function(){for(var t=document.getElementsByTagName(&quot;script&quot;),e=t.length;e--;)if(t[e].getAttribute(&quot;cf-hash&quot;))return t[e]}();if(t&amp;&amp;t.previousSibling){var e,r,n,i,c=t.previousSibling,a=c.getAttribute(&quot;data-cfemail&quot;);if(a){for(e=&quot;&quot;,r=parseInt(a.substr(0,2),16),n=2;a.length-n;n+=2)i=parseInt(a.substr(n,2),16)^r,e+=String.fromCharCode(i);e=document.createTextNode(e),c.parentNode.replaceChild(e,c)}}}catch(u){}}();/* ]]&gt; */&lt;/script&gt;\nFormat settings, CABAC      : Yes\nFormat settings, ReFrames   : 2 frames\nCodec ID                    : avc1\nCodec ID/Info               : Advanced Video Coding\nDuration                    : 4mn 6s\nBit rate                    : 3 945 Kbps\nWidth                       : 1 920 pixels\nHeight                      : 1 080 pixels\nDisplay aspect ratio        : 16:9\nFrame rate mode             : Variable\nFrame rate                  : 23.976 fps\nMinimum frame rate          : 23.974 fps\nMaximum frame rate          : 23.981 fps\nColor space                 : YUV\nChroma subsampling          : 4:2:0\nBit depth                   : 8 bits\nScan type                   : Progressive\nBits/(Pixel*Frame)          : 0.079\nStream size                 : 116 MiB (94%)\n\nAudio\nID                          : 2\nFormat                      : AAC\nFormat/Info                 : Advanced Audio Codec\nFormat profile              : LC\nCodec ID                    : 40\nDuration                    : 4mn 7s\nBit rate mode               : Constant\nBit rate                    : 256 Kbps\nChannel(s)                  : 2 channels\nChannel positions           : Front: L R\nSampling rate               : 44.1 KHz\nCompression mode            : Lossy\nStream size                 : 7.54 MiB (6%)\n &lt;a href=&quot;\nhttps://thepiratebay.se/user/MeRaDil&quot; rel=&quot;nofollow&quot; target=&quot;_NEW&quot;&gt;\nhttps://thepiratebay.se/user/MeRaDil&lt;/a&gt;\n\nCharli XCX * Sucker * Rita Ora * Promo * Pop\n\n:)","torrent":{"xt":"urn:btih:ecdf97dd0ecac7b151e08dc0b70304e000e19e43","amp;dn":"Charli+XCX+ft.+Rita+Ora+-+Doing+It+%282015.Pop%29","amp;tr":["udp%3A%2F%2Ftracker.openbittorrent.com%3A80","udp%3A%2F%2Fopen.demonii.com%3A1337","udp%3A%2F%2Ftracker.coppersurfer.tk%3A6969","udp%3A%2F%2Fexodus.desync.com%3A6969"],"infoHash":"ecdf97dd0ecac7b151e08dc0b70304e000e19e43","infoHashBuffer":{"type":"Buffer","data":[236,223,151,221,14,202,199,177,81,224,141,192,183,3,4,224,0,225,158,67]},"announce":[],"urlList":[]}}